#tb 0: 1/25
0,          0,          0,        1,    92160, 0x88999ff4
0,          1,          1,        1,    92160, 0x4737a966
0,          2,          2,        1,    92160, 0x112a2f89
0,          3,          3,        1,    92160, 0x9a167cd7
0,          4,          4,        1,    92160, 0x516a1e6f
0,          5,          5,        1,    92160, 0x429c9519
0,          6,          6,        1,    92160, 0x9846a462
0,          7,          7,        1,    92160, 0xa05ebeca
0,          8,          8,        1,    92160, 0x3ff67a4d
0,          9,          9,        1,    92160, 0xd25c4177
0,         10,         10,        1,    92160, 0xab7c53ee
0,         11,         11,        1,    92160, 0x7b56a2a2
0,         12,         12,        1,    92160, 0xf9811f82
0,         13,         13,        1,    92160, 0x19d29b95
0,         14,         14,        1,    92160, 0x09726fc6
0,         15,         15,        1,    92160, 0x5d03a0dc
0,         16,         16,        1,    92160, 0x60d42fc1
0,         17,         17,        1,    92160, 0x4a88e8a3
0,         18,         18,        1,    92160, 0x0f8f365e
0,         19,         19,        1,    92160, 0xe084107a
0,         20,         20,        1,    92160, 0x22f59319
0,         21,         21,        1,    92160, 0xb58a35d6
0,         22,         22,        1,    92160, 0xd60bb1e5
0,         23,         23,        1,    92160, 0x9a0a4069
0,         24,         24,        1,    92160, 0x3df05d58
0,         25,         25,        1,    92160, 0x07f79654
0,         26,         26,        1,    92160, 0x04ef417c
0,         27,         27,        1,    92160, 0x376b0aa9
0,         28,         28,        1,    92160, 0x817b68ab
0,         29,         29,        1,    92160, 0x4f7e20d4
0,         30,         30,        1,    92160, 0x6299b3d7
0,         31,         31,        1,    92160, 0xc7f6b969
0,         32,         32,        1,    92160, 0x9b428401
0,         33,         33,        1,    92160, 0x489630fb
0,         34,         34,        1,    92160, 0x79740ce2
0,         35,         35,        1,    92160, 0xa89a6399
0,         36,         36,        1,    92160, 0x972cf92e
0,         37,         37,        1,    92160, 0xb4e71e1e
0,         38,         38,        1,    92160, 0x9fcdc47d
0,         39,         39,        1,    92160, 0x96968694
0,         40,         40,        1,    92160, 0x64368c73
0,         41,         41,        1,    92160, 0xe3d154ff
0,         42,         42,        1,    92160, 0xd94a2832
0,         43,         43,        1,    92160, 0xf768d84c
0,         44,         44,        1,    92160, 0xaf0b4afd
